<svg xmlns="http://www.w3.org/2000/svg" aria-hidden="true" style="position:absolute;width:0;height:0;overflow:hidden"><defs>

<symbol id="icon-iconHome" viewBox="0 0 35 32">
<path d="M32.64 15.401a1.541 1.541 0 0 0-.129-2.225L17.739.426c-.671-.578-1.745-.566-2.402.027L.515 13.856a1.532 1.532 0 0 0-.071 2.222l.372.382c.617.633 1.613.708 2.224.168l1.108-.979v14.326c0 .879.722 1.591 1.612 1.591h5.778c.89 0 1.612-.712 1.612-1.591V19.952h7.37v10.023c-.013.878.624 1.59 1.515 1.59h6.123c.89 0 1.613-.711 1.613-1.59V15.851l.683.592c.377.328 1.168.065 1.767-.586l.42-.455z"/>
</symbol>

<symbol id="icon-facebook" viewBox="0 0 16 32">
<path d="M14.143 15.972h-4.034v14.865H3.997V15.972H1.09v-5.224h2.907V7.367c0-2.418 1.142-6.203 6.166-6.203l4.527.019v5.071h-3.285c-.539 0-1.296.271-1.296 1.424v3.075h4.567l-.534 5.219z"/>
</symbol>

<symbol id="icon-github" viewBox="0 0 32 32">
<path d="M16 0C7.212 0 0 7.212 0 16c0 7.499 5.262 14.312 12.25 16v-5.293c-.692.152-1.33.156-2.034-.052-.946-.279-1.714-.909-2.284-1.869-.364-.613-1.008-1.278-1.68-1.23l-.165-1.868c1.453-.124 2.711.886 3.457 2.14.332.558.713.884 1.203 1.029.473.14.982.072 1.574-.137.149-1.186.692-1.63 1.102-2.255v-.001c-4.167-.622-5.828-2.832-6.488-4.578-.874-2.317-.405-5.212 1.14-7.041.03-.036.084-.129.063-.194-.708-2.139.155-3.909.187-4.097.817.242.95-.243 3.551 1.337l.449.27c.188.112.129.048.317.034A13.544 13.544 0 0 1 16 7.723c1.136.015 2.273.178 3.404.484l.145.015c-.013-.002.04-.009.127-.062 3.248-1.968 3.132-1.324 4.003-1.608.032.188.883 1.987.182 4.099-.095.291 2.816 2.956 1.203 7.235-.659 1.746-2.32 3.957-6.487 4.578v.001c.534.814 1.176 1.247 1.173 2.927V32C26.738 30.312 32 23.499 32 16c0-8.788-7.212-16-16-16z"/>
</symbol>

<symbol id="icon-telegram" viewBox="0 0 44 32">
<path d="m17.343 21.048-.675 8.86c.966 0 1.384-.387 1.885-.852l4.527-4.038 9.381 6.412c1.72.895 2.933.424 3.397-1.477l6.159-26.93c.546-2.374-.92-3.302-2.596-2.72L3.227 13.236c-2.47.895-2.433 2.18-.42 2.762l9.253 2.686L33.554 6.132c1.012-.625 1.931-.279 1.175.346l-17.386 14.57z"/>
</symbol>
<symbol id="icon-home" viewBox="0 0 35 32">
<path fill="#d31342" style="fill: var(--color1, #d31342)" d="M32.64 15.401c0.599-0.65 0.541-1.646-0.129-2.225l-14.772-12.75c-0.671-0.578-1.745-0.566-2.402 0.027l-14.822 13.403c-0.656 0.594-0.689 1.589-0.071 2.222l0.372 0.382c0.617 0.633 1.613 0.708 2.224 0.168l1.108-0.979v14.326c0 0.879 0.722 1.591 1.612 1.591h5.778c0.89 0 1.612-0.712 1.612-1.591v-10.023h7.37v10.023c-0.013 0.878 0.624 1.59 1.515 1.59h6.123c0.89 0 1.613-0.711 1.613-1.59v-14.124c0 0 0.306 0.264 0.683 0.592s1.168 0.065 1.767-0.586l0.42-0.455z"></path>
</symbol>
<symbol id="icon-menu" viewBox="0 0 48 32"><path d="M0 5.333V0h48v5.333H0zm0 13.334h48v-5.333H0v5.333zM0 32h48v-5.333H0V32z"/></symbol>

</defs></svg>












